# xmcd
#
# Track frame offsets:
#	150
#	11707
#	23637
#	36002
#	49082
#	62247
#	79652
#	98620
#	118520
#	132167
#	147155
#	159387
#	171982
#	185665
#	209762
#	229625
#
# Disc length: 3238 seconds
# Revision: 2
# Processed by: cddbd v1.5.2PL0 Copyright (c) Steve Scherf et al.
# Submitted via: dBpowerAMP V12.0
#
DISCID=d50ca410
DTITLE=Various Artist - L'âme du blues [CD2)
DYEAR=1900
DGENRE=Jazz-Blues
TTITLE0=John Lee Hooker - Boom boom
TTITLE1=Bukka White - Bukka's jitterbug swing
TTITLE2=Sonny Terry and Brownie McGhee - Sittin' on top of the world
TTITLE3=Johnny Shines - Baby don't you think I know
TTITLE4=Aretha Franklin - Trouble in mind
TTITLE5=Muddy Waters - Rock me
TTITLE6=Michael Bloomfield with The electric flag - Killing floor
TTITLE7=Janis Joplin with Big brother and The holding company - Turtle blues
TTITLE8=B.B. King - The woman I love
TTITLE9=Bessie Smith - Back water blues
TTITLE10=Big Bill Broonzy - Merry go round blues
TTITLE11=Aretha Franklin - Today I sing the blues
TTITLE12=Keb' Mo' - Love blues
TTITLE13=Stevie Ray Vaughan - Texas flood
TTITLE14=Buddy Guy - Damn right, I've got the blues
TTITLE15=Eric Clapton - Blues before sunrise
EXTD=
EXTT0=
EXTT1=
EXTT2=
EXTT3=
EXTT4=
EXTT5=
EXTT6=
EXTT7=
EXTT8=
EXTT9=
EXTT10=
EXTT11=
EXTT12=
EXTT13=
EXTT14=
EXTT15=
PLAYORDER=
